<svg xmlns="http://www.w3.org/2000/svg" viewBox="0 0 960 1060">
  <defs>
    <linearGradient id="bgGrad" x1="0" y1="0" x2="0" y2="1">
      <stop offset="0%" stop-color="#0a0e1a"/>
      <stop offset="100%" stop-color="#0f1528"/>
    </linearGradient>
    <linearGradient id="poGrad" x1="0" y1="0" x2="1" y2="0">
      <stop offset="0%" stop-color="#22c55e" stop-opacity="0.15"/>
      <stop offset="100%" stop-color="#22c55e" stop-opacity="0.05"/>
    </linearGradient>
    <linearGradient id="designerGrad" x1="0" y1="0" x2="1" y2="0">
      <stop offset="0%" stop-color="#f59e0b" stop-opacity="0.15"/>
      <stop offset="100%" stop-color="#f59e0b" stop-opacity="0.05"/>
    </linearGradient>
    <linearGradient id="archGrad" x1="0" y1="0" x2="1" y2="0">
      <stop offset="0%" stop-color="#3b82f6" stop-opacity="0.15"/>
      <stop offset="100%" stop-color="#3b82f6" stop-opacity="0.05"/>
    </linearGradient>
    <linearGradient id="secGrad" x1="0" y1="0" x2="1" y2="0">
      <stop offset="0%" stop-color="#ef4444" stop-opacity="0.15"/>
      <stop offset="100%" stop-color="#ef4444" stop-opacity="0.05"/>
    </linearGradient>
    <linearGradient id="researchGrad" x1="0" y1="0" x2="1" y2="0">
      <stop offset="0%" stop-color="#10b981" stop-opacity="0.12"/>
      <stop offset="100%" stop-color="#10b981" stop-opacity="0.04"/>
    </linearGradient>
    <linearGradient id="cyanGrad" x1="0" y1="0" x2="1" y2="0">
      <stop offset="0%" stop-color="#06b6d4" stop-opacity="0.2"/>
      <stop offset="100%" stop-color="#06b6d4" stop-opacity="0.08"/>
    </linearGradient>
    <linearGradient id="expertGrad" x1="0" y1="0" x2="1" y2="0">
      <stop offset="0%" stop-color="#a78bfa" stop-opacity="0.15"/>
      <stop offset="100%" stop-color="#a78bfa" stop-opacity="0.05"/>
    </linearGradient>
    <filter id="glow">
      <feGaussianBlur stdDeviation="2" result="blur"/>
      <feMerge><feMergeNode in="blur"/><feMergeNode in="SourceGraphic"/></feMerge>
    </filter>
  </defs>

  <!-- Background -->
  <rect width="960" height="1060" fill="url(#bgGrad)"/>

  <!-- ===== PHASE 1: Knowledge Seeding ===== -->
  <g transform="translate(0, 8)">
    <circle cx="50" cy="18" r="14" fill="none" stroke="#64748b" stroke-width="1.5"/>
    <text x="50" y="23" text-anchor="middle" fill="#94a3b8" font-family="system-ui, sans-serif" font-size="13" font-weight="700">1</text>
    <text x="72" y="23" fill="#e2e8f0" font-family="system-ui, sans-serif" font-size="13" font-weight="600">Knowledge Seeding</text>

    <!-- Architect loads -->
    <rect x="30" y="38" width="220" height="46" rx="6" fill="url(#archGrad)" stroke="#3b82f6" stroke-width="1" stroke-opacity="0.4"/>
    <text x="46" y="54" fill="#3b82f6" font-family="system-ui, sans-serif" font-size="11" font-weight="700">Architect</text>
    <text x="46" y="68" fill="#93c5fd" font-family="system-ui, sans-serif" font-size="9">ADRs, CALM specs, quality attributes</text>
    <text x="46" y="78" fill="#93c5fd" font-family="system-ui, sans-serif" font-size="8">&#x2192; NCMS Memory</text>

    <!-- Security loads -->
    <rect x="710" y="38" width="220" height="46" rx="6" fill="url(#secGrad)" stroke="#ef4444" stroke-width="1" stroke-opacity="0.4"/>
    <text x="726" y="54" fill="#ef4444" font-family="system-ui, sans-serif" font-size="11" font-weight="700">Security</text>
    <text x="726" y="68" fill="#fca5a5" font-family="system-ui, sans-serif" font-size="9">STRIDE threats, OWASP controls, NIST refs</text>
    <text x="726" y="78" fill="#fca5a5" font-family="system-ui, sans-serif" font-size="8">&#x2192; NCMS Memory</text>

    <!-- Arrows into NCMS Hub -->
    <line x1="250" y1="61" x2="385" y2="61" stroke="#3b82f6" stroke-width="1.5" stroke-opacity="0.5"/>
    <polygon points="383,56 393,61 383,66" fill="#3b82f6" fill-opacity="0.6"/>
    <line x1="710" y1="61" x2="575" y2="61" stroke="#ef4444" stroke-width="1.5" stroke-opacity="0.5"/>
    <polygon points="577,56 567,61 577,66" fill="#ef4444" fill-opacity="0.6"/>

    <!-- NCMS Hub -->
    <rect x="393" y="42" width="174" height="38" rx="8" fill="url(#cyanGrad)" stroke="#06b6d4" stroke-width="1.5"/>
    <text x="480" y="57" text-anchor="middle" fill="#22d3ee" font-family="system-ui, sans-serif" font-size="12" font-weight="700">NCMS Hub</text>
    <text x="480" y="72" text-anchor="middle" fill="#67e8f9" font-family="system-ui, sans-serif" font-size="9">BM25 + SPLADE v3</text>
  </g>

  <!-- Connector arrow 1->2 -->
  <line x1="480" y1="96" x2="480" y2="114" stroke="#475569" stroke-width="1.5" stroke-dasharray="4,3"/>
  <polygon points="475,112 480,120 485,112" fill="#475569"/>

  <!-- ===== PHASE 2: Research ===== -->
  <g transform="translate(0, 120)">
    <circle cx="50" cy="18" r="14" fill="none" stroke="#64748b" stroke-width="1.5"/>
    <text x="50" y="23" text-anchor="middle" fill="#94a3b8" font-family="system-ui, sans-serif" font-size="13" font-weight="700">2</text>
    <text x="72" y="23" fill="#e2e8f0" font-family="system-ui, sans-serif" font-size="13" font-weight="600">Research</text>
    <text x="200" y="23" fill="#8b7bae" font-family="system-ui, sans-serif" font-size="9">(Semi-Formal + CoT  |  Tavily + ArXiv + USPTO + HN)</text>

    <!-- Archeologist box -->
    <rect x="30" y="36" width="900" height="68" rx="8" fill="url(#researchGrad)" stroke="#10b981" stroke-width="1" stroke-opacity="0.5"/>
    <text x="46" y="52" fill="#10b981" font-family="system-ui, sans-serif" font-size="11" font-weight="700">Archeologist</text>

    <!-- Node: check_guardrails (cyan/shield) -->
    <rect x="50" y="60" width="76" height="28" rx="5" fill="#0a1628" stroke="#06b6d4" stroke-width="1.2" stroke-opacity="0.8"/>
    <text x="88" y="78" text-anchor="middle" fill="#22d3ee" font-family="system-ui, sans-serif" font-size="9" font-weight="600">Guard</text>
    <text x="58" y="78" fill="#22d3ee" font-family="system-ui, sans-serif" font-size="9">&#x1F6E1;</text>

    <!-- Arrow -->
    <line x1="126" y1="74" x2="148" y2="74" stroke="#34d399" stroke-width="1.2" stroke-opacity="0.5"/>
    <polygon points="146,70 154,74 146,78" fill="#34d399" fill-opacity="0.6"/>

    <!-- Node: plan_queries -->
    <rect x="154" y="60" width="96" height="28" rx="5" fill="#0f1528" stroke="#34d399" stroke-width="1" stroke-opacity="0.6"/>
    <text x="202" y="74" text-anchor="middle" fill="#6ee7b7" font-family="system-ui, sans-serif" font-size="9" font-weight="600">Plan</text>
    <text x="202" y="84" text-anchor="middle" fill="#94a3b8" font-family="system-ui, sans-serif" font-size="7">web+arxiv+patent+HN</text>

    <!-- Arrow -->
    <line x1="250" y1="74" x2="272" y2="74" stroke="#34d399" stroke-width="1.2" stroke-opacity="0.5"/>
    <polygon points="270,70 278,74 270,78" fill="#34d399" fill-opacity="0.6"/>

    <!-- Node: parallel_search -->
    <rect x="278" y="56" width="120" height="36" rx="5" fill="#0f1528" stroke="#34d399" stroke-width="1" stroke-opacity="0.6"/>
    <text x="338" y="72" text-anchor="middle" fill="#6ee7b7" font-family="system-ui, sans-serif" font-size="9" font-weight="600">parallel_search</text>
    <text x="338" y="84" text-anchor="middle" fill="#94a3b8" font-family="system-ui, sans-serif" font-size="8">5x Tavily</text>

    <!-- Arrow -->
    <line x1="398" y1="74" x2="413" y2="74" stroke="#34d399" stroke-width="1.2" stroke-opacity="0.5"/>
    <polygon points="411,70 419,74 411,78" fill="#34d399" fill-opacity="0.6"/>

    <!-- Node: arxiv_search -->
    <rect x="419" y="56" width="80" height="36" rx="5" fill="#0f1528" stroke="#f59e0b" stroke-width="1" stroke-opacity="0.6"/>
    <text x="459" y="72" text-anchor="middle" fill="#fbbf24" font-family="system-ui, sans-serif" font-size="9" font-weight="600">arxiv_search</text>
    <text x="459" y="84" text-anchor="middle" fill="#94a3b8" font-family="system-ui, sans-serif" font-size="8">Academic</text>

    <!-- Arrow -->
    <line x1="499" y1="74" x2="510" y2="74" stroke="#34d399" stroke-width="1.2" stroke-opacity="0.5"/>
    <polygon points="508,70 516,74 508,78" fill="#34d399" fill-opacity="0.6"/>

    <!-- Node: patent_search (USPTO — distinct teal/cyan stroke) -->
    <rect x="516" y="56" width="72" height="36" rx="5" fill="#0a1628" stroke="#06b6d4" stroke-width="1.2" stroke-opacity="0.8"/>
    <text x="552" y="72" text-anchor="middle" fill="#22d3ee" font-family="system-ui, sans-serif" font-size="9" font-weight="600">Patents</text>
    <text x="552" y="84" text-anchor="middle" fill="#94a3b8" font-family="system-ui, sans-serif" font-size="8">USPTO</text>

    <!-- Arrow -->
    <line x1="588" y1="74" x2="599" y2="74" stroke="#34d399" stroke-width="1.2" stroke-opacity="0.5"/>
    <polygon points="597,70 605,74 597,78" fill="#34d399" fill-opacity="0.6"/>

    <!-- Node: community_search (HackerNews — distinct purple/violet stroke) -->
    <rect x="605" y="56" width="76" height="36" rx="5" fill="#1a0f28" stroke="#a78bfa" stroke-width="1.2" stroke-opacity="0.8"/>
    <text x="643" y="72" text-anchor="middle" fill="#c4b5fd" font-family="system-ui, sans-serif" font-size="9" font-weight="600">Community</text>
    <text x="643" y="84" text-anchor="middle" fill="#94a3b8" font-family="system-ui, sans-serif" font-size="8">HackerNews</text>

    <!-- Arrow -->
    <line x1="681" y1="74" x2="692" y2="74" stroke="#34d399" stroke-width="1.2" stroke-opacity="0.5"/>
    <polygon points="690,70 698,74 690,78" fill="#34d399" fill-opacity="0.6"/>

    <!-- Node: synthesize -->
    <rect x="698" y="60" width="60" height="28" rx="5" fill="#0f1528" stroke="#34d399" stroke-width="1" stroke-opacity="0.6"/>
    <text x="718" y="74" text-anchor="middle" fill="#6ee7b7" font-family="system-ui, sans-serif" font-size="9">&#x1F9E0;</text>
    <text x="738" y="78" text-anchor="middle" fill="#6ee7b7" font-family="system-ui, sans-serif" font-size="8" font-weight="600">Synth</text>

    <!-- Arrow -->
    <line x1="758" y1="74" x2="769" y2="74" stroke="#34d399" stroke-width="1.2" stroke-opacity="0.5"/>
    <polygon points="767,70 775,74 767,78" fill="#34d399" fill-opacity="0.6"/>

    <!-- Node: publish -->
    <rect x="775" y="60" width="52" height="28" rx="5" fill="#0f1528" stroke="#34d399" stroke-width="1" stroke-opacity="0.6"/>
    <text x="801" y="78" text-anchor="middle" fill="#6ee7b7" font-family="system-ui, sans-serif" font-size="8" font-weight="600">publish</text>

    <!-- Arrow -->
    <line x1="827" y1="74" x2="838" y2="74" stroke="#34d399" stroke-width="1.2" stroke-opacity="0.5"/>
    <polygon points="836,70 844,74 836,78" fill="#34d399" fill-opacity="0.6"/>

    <!-- Node: verify/trigger -->
    <rect x="844" y="60" width="66" height="28" rx="5" fill="#0f1528" stroke="#34d399" stroke-width="1" stroke-opacity="0.6"/>
    <text x="877" y="78" text-anchor="middle" fill="#6ee7b7" font-family="system-ui, sans-serif" font-size="8" font-weight="600">verify</text>

    <!-- Output artifact -->
    <rect x="920" y="64" width="28" height="20" rx="4" fill="#1e293b" stroke="#64748b" stroke-width="1"/>
    <text x="934" y="78" text-anchor="middle" fill="#94a3b8" font-family="system-ui, sans-serif" font-size="7" font-weight="600">&#x1F4CB;</text>
  </g>

  <!-- Auto-trigger connector 2->3 -->
  <line x1="480" y1="226" x2="480" y2="250" stroke="#22c55e" stroke-width="1.5" stroke-dasharray="4,3"/>
  <polygon points="475,248 480,256 485,248" fill="#22c55e"/>
  <text x="510" y="242" fill="#22c55e" font-family="system-ui, sans-serif" font-size="9" font-weight="600">auto-trigger</text>

  <!-- ===== PHASE 3: PRD Creation ===== -->
  <g transform="translate(0, 256)">
    <circle cx="50" cy="18" r="14" fill="none" stroke="#64748b" stroke-width="1.5"/>
    <text x="50" y="23" text-anchor="middle" fill="#94a3b8" font-family="system-ui, sans-serif" font-size="13" font-weight="700">3</text>
    <text x="72" y="23" fill="#e2e8f0" font-family="system-ui, sans-serif" font-size="13" font-weight="600">PRD Creation</text>
    <text x="200" y="23" fill="#8b7bae" font-family="system-ui, sans-serif" font-size="9">(Semi-Formal + CoT  |  Requirement Traceability)</text>

    <!-- Product Owner box -->
    <rect x="30" y="36" width="870" height="96" rx="8" fill="url(#poGrad)" stroke="#22c55e" stroke-width="1" stroke-opacity="0.5"/>
    <text x="46" y="52" fill="#22c55e" font-family="system-ui, sans-serif" font-size="11" font-weight="700">Product Owner</text>

    <!-- Node: check_guardrails (cyan/shield) -->
    <rect x="50" y="60" width="68" height="28" rx="5" fill="#0a1628" stroke="#06b6d4" stroke-width="1.2" stroke-opacity="0.8"/>
    <text x="84" y="78" text-anchor="middle" fill="#22d3ee" font-family="system-ui, sans-serif" font-size="9" font-weight="600">Guard</text>
    <text x="58" y="78" fill="#22d3ee" font-family="system-ui, sans-serif" font-size="9">&#x1F6E1;</text>

    <!-- Arrow -->
    <line x1="118" y1="74" x2="134" y2="74" stroke="#4ade80" stroke-width="1.2" stroke-opacity="0.5"/>
    <polygon points="132,70 140,74 132,78" fill="#4ade80" fill-opacity="0.6"/>

    <!-- Node: read_document -->
    <rect x="140" y="60" width="88" height="28" rx="5" fill="#0f1528" stroke="#4ade80" stroke-width="1" stroke-opacity="0.6"/>
    <text x="184" y="78" text-anchor="middle" fill="#86efac" font-family="system-ui, sans-serif" font-size="9" font-weight="600">read_doc</text>

    <!-- Arrow -->
    <line x1="228" y1="74" x2="244" y2="74" stroke="#4ade80" stroke-width="1.2" stroke-opacity="0.5"/>
    <polygon points="242,70 250,74 242,78" fill="#4ade80" fill-opacity="0.6"/>

    <!-- Node: ask_experts -->
    <rect x="250" y="56" width="96" height="36" rx="5" fill="#0f1528" stroke="#4ade80" stroke-width="1" stroke-opacity="0.6"/>
    <text x="298" y="70" text-anchor="middle" fill="#86efac" font-family="system-ui, sans-serif" font-size="9" font-weight="600">ask_experts</text>
    <text x="298" y="82" text-anchor="middle" fill="#c4b5fd" font-family="system-ui, sans-serif" font-size="7">Expert LangGraph</text>
    <text x="298" y="90" text-anchor="middle" fill="#64748b" font-family="system-ui, sans-serif" font-size="6">classify &#x2192; memory &#x2192; synth</text>

    <!-- Arrow -->
    <line x1="346" y1="74" x2="362" y2="74" stroke="#4ade80" stroke-width="1.2" stroke-opacity="0.5"/>
    <polygon points="360,70 368,74 360,78" fill="#4ade80" fill-opacity="0.6"/>

    <!-- Node: synthesize_prd -->
    <rect x="368" y="60" width="92" height="28" rx="5" fill="#0f1528" stroke="#4ade80" stroke-width="1" stroke-opacity="0.6"/>
    <text x="414" y="78" text-anchor="middle" fill="#86efac" font-family="system-ui, sans-serif" font-size="9" font-weight="600">synth_prd</text>

    <!-- Arrow -->
    <line x1="460" y1="74" x2="476" y2="74" stroke="#4ade80" stroke-width="1.2" stroke-opacity="0.5"/>
    <polygon points="474,70 482,74 474,78" fill="#4ade80" fill-opacity="0.6"/>

    <!-- Node: generate_manifest (orange/amber) -->
    <rect x="482" y="60" width="80" height="28" rx="5" fill="#1a1400" stroke="#f59e0b" stroke-width="1.2" stroke-opacity="0.8"/>
    <text x="522" y="78" text-anchor="middle" fill="#fbbf24" font-family="system-ui, sans-serif" font-size="9" font-weight="600">Manifest</text>

    <!-- Arrow -->
    <line x1="562" y1="74" x2="578" y2="74" stroke="#4ade80" stroke-width="1.2" stroke-opacity="0.5"/>
    <polygon points="576,70 584,74 576,78" fill="#4ade80" fill-opacity="0.6"/>

    <!-- Node: publish_prd -->
    <rect x="584" y="60" width="76" height="28" rx="5" fill="#0f1528" stroke="#4ade80" stroke-width="1" stroke-opacity="0.6"/>
    <text x="622" y="78" text-anchor="middle" fill="#86efac" font-family="system-ui, sans-serif" font-size="9" font-weight="600">publish</text>

    <!-- Arrow -->
    <line x1="660" y1="74" x2="676" y2="74" stroke="#4ade80" stroke-width="1.2" stroke-opacity="0.5"/>
    <polygon points="674,70 682,74 674,78" fill="#4ade80" fill-opacity="0.6"/>

    <!-- Node: verify/trigger -->
    <rect x="682" y="60" width="86" height="28" rx="5" fill="#0f1528" stroke="#4ade80" stroke-width="1" stroke-opacity="0.6"/>
    <text x="725" y="78" text-anchor="middle" fill="#86efac" font-family="system-ui, sans-serif" font-size="9" font-weight="600">verify/trigger</text>

    <!-- Output artifact + tags together -->
    <rect x="786" y="52" width="100" height="44" rx="5" fill="#1e293b" stroke="#64748b" stroke-width="1"/>
    <text x="836" y="68" text-anchor="middle" fill="#94a3b8" font-family="system-ui, sans-serif" font-size="9" font-weight="600">16KB PRD</text>
    <text x="836" y="82" text-anchor="middle" fill="#6ee7b7" font-family="system-ui, sans-serif" font-size="7">ADR STRIDE CALM</text>
    <text x="836" y="92" text-anchor="middle" fill="#6ee7b7" font-family="system-ui, sans-serif" font-size="7">NIST PKCE RS256</text>
  </g>

  <!-- Auto-trigger connector 3->4 -->
  <line x1="480" y1="390" x2="480" y2="414" stroke="#22c55e" stroke-width="1.5" stroke-dasharray="4,3"/>
  <polygon points="475,412 480,420 485,412" fill="#22c55e"/>
  <text x="510" y="406" fill="#22c55e" font-family="system-ui, sans-serif" font-size="9" font-weight="600">auto-trigger</text>

  <!-- ===== PHASE 4: Implementation Design (with Review Loop) ===== -->
  <g transform="translate(0, 420)">
    <circle cx="50" cy="18" r="14" fill="none" stroke="#64748b" stroke-width="1.5"/>
    <text x="50" y="23" text-anchor="middle" fill="#94a3b8" font-family="system-ui, sans-serif" font-size="13" font-weight="700">4</text>
    <text x="72" y="23" fill="#e2e8f0" font-family="system-ui, sans-serif" font-size="13" font-weight="600">Implementation Design</text>

    <!-- Designer box (taller to accommodate review loop + new nodes) -->
    <rect x="30" y="36" width="870" height="218" rx="8" fill="url(#designerGrad)" stroke="#f59e0b" stroke-width="1" stroke-opacity="0.5"/>
    <text x="46" y="52" fill="#f59e0b" font-family="system-ui, sans-serif" font-size="11" font-weight="700">Designer</text>

    <!-- === Row 1: Main pipeline === -->
    <!-- Node: check_guardrails (cyan/shield) -->
    <rect x="50" y="60" width="62" height="28" rx="5" fill="#0a1628" stroke="#06b6d4" stroke-width="1.2" stroke-opacity="0.8"/>
    <text x="81" y="78" text-anchor="middle" fill="#22d3ee" font-family="system-ui, sans-serif" font-size="8" font-weight="600">Guard</text>
    <text x="57" y="78" fill="#22d3ee" font-family="system-ui, sans-serif" font-size="9">&#x1F6E1;</text>

    <!-- Arrow -->
    <line x1="112" y1="74" x2="126" y2="74" stroke="#fbbf24" stroke-width="1.2" stroke-opacity="0.5"/>
    <polygon points="124,70 132,74 124,78" fill="#fbbf24" fill-opacity="0.6"/>

    <!-- Node: read_document -->
    <rect x="132" y="60" width="78" height="28" rx="5" fill="#0f1528" stroke="#fbbf24" stroke-width="1" stroke-opacity="0.6"/>
    <text x="171" y="78" text-anchor="middle" fill="#fde68a" font-family="system-ui, sans-serif" font-size="8" font-weight="600">read_doc</text>

    <!-- Arrow -->
    <line x1="210" y1="74" x2="224" y2="74" stroke="#fbbf24" stroke-width="1.2" stroke-opacity="0.5"/>
    <polygon points="222,70 230,74 222,78" fill="#fbbf24" fill-opacity="0.6"/>

    <!-- Node: ask_experts -->
    <rect x="230" y="56" width="90" height="36" rx="5" fill="#0f1528" stroke="#fbbf24" stroke-width="1" stroke-opacity="0.6"/>
    <text x="275" y="70" text-anchor="middle" fill="#fde68a" font-family="system-ui, sans-serif" font-size="8" font-weight="600">ask_experts</text>
    <text x="275" y="82" text-anchor="middle" fill="#c4b5fd" font-family="system-ui, sans-serif" font-size="7">Expert LangGraph</text>
    <text x="275" y="90" text-anchor="middle" fill="#64748b" font-family="system-ui, sans-serif" font-size="6">classify &#x2192; memory &#x2192; synth</text>

    <!-- Arrow -->
    <line x1="320" y1="74" x2="334" y2="74" stroke="#fbbf24" stroke-width="1.2" stroke-opacity="0.5"/>
    <polygon points="332,70 340,74 332,78" fill="#fbbf24" fill-opacity="0.6"/>

    <!-- Node: synthesize_design -->
    <rect x="340" y="60" width="88" height="28" rx="5" fill="#0f1528" stroke="#fbbf24" stroke-width="1" stroke-opacity="0.6"/>
    <text x="384" y="78" text-anchor="middle" fill="#fde68a" font-family="system-ui, sans-serif" font-size="8" font-weight="600">synth_design</text>

    <!-- Arrow -->
    <line x1="428" y1="74" x2="442" y2="74" stroke="#fbbf24" stroke-width="1.2" stroke-opacity="0.5"/>
    <polygon points="440,70 448,74 440,78" fill="#fbbf24" fill-opacity="0.6"/>

    <!-- Node: validate_completeness (yellow/amber) -->
    <rect x="448" y="60" width="72" height="28" rx="5" fill="#1a1400" stroke="#eab308" stroke-width="1.2" stroke-opacity="0.8"/>
    <text x="484" y="78" text-anchor="middle" fill="#facc15" font-family="system-ui, sans-serif" font-size="8" font-weight="600">Validate</text>

    <!-- Arrow -->
    <line x1="520" y1="74" x2="534" y2="74" stroke="#fbbf24" stroke-width="1.2" stroke-opacity="0.5"/>
    <polygon points="532,70 540,74 532,78" fill="#fbbf24" fill-opacity="0.6"/>

    <!-- Node: check_output_guardrails (cyan/shield) -->
    <rect x="540" y="60" width="72" height="28" rx="5" fill="#0a1628" stroke="#06b6d4" stroke-width="1.2" stroke-opacity="0.8"/>
    <text x="576" y="78" text-anchor="middle" fill="#22d3ee" font-family="system-ui, sans-serif" font-size="8" font-weight="600">OutGuard</text>
    <text x="547" y="78" fill="#22d3ee" font-family="system-ui, sans-serif" font-size="8">&#x1F6E1;</text>

    <!-- Arrow -->
    <line x1="612" y1="74" x2="626" y2="74" stroke="#fbbf24" stroke-width="1.2" stroke-opacity="0.5"/>
    <polygon points="624,70 632,74 624,78" fill="#fbbf24" fill-opacity="0.6"/>

    <!-- Node: publish_design -->
    <rect x="632" y="60" width="72" height="28" rx="5" fill="#0f1528" stroke="#fbbf24" stroke-width="1" stroke-opacity="0.6"/>
    <text x="668" y="78" text-anchor="middle" fill="#fde68a" font-family="system-ui, sans-serif" font-size="8" font-weight="600">publish</text>

    <!-- Arrow down to request_review -->
    <line x1="668" y1="88" x2="668" y2="108" stroke="#fbbf24" stroke-width="1.2" stroke-opacity="0.5"/>
    <polygon points="663,106 668,114 673,106" fill="#fbbf24" fill-opacity="0.6"/>

    <!-- Output artifact for Phase 4 -->
    <rect x="730" y="46" width="76" height="58" rx="5" fill="#1e293b" stroke="#64748b" stroke-width="1"/>
    <text x="768" y="60" text-anchor="middle" fill="#94a3b8" font-family="system-ui, sans-serif" font-size="9" font-weight="600">21KB</text>
    <text x="768" y="72" text-anchor="middle" fill="#94a3b8" font-family="system-ui, sans-serif" font-size="9" font-weight="600">Design v2</text>
    <text x="768" y="84" text-anchor="middle" fill="#fde68a" font-family="system-ui, sans-serif" font-size="7">JWT interfaces</text>
    <text x="768" y="94" text-anchor="middle" fill="#fde68a" font-family="system-ui, sans-serif" font-size="7">TypeScript middleware</text>
    <!-- Approved badge -->
    <rect x="742" y="97" width="52" height="14" rx="3" fill="#166534" stroke="#4ade80" stroke-width="0.8"/>
    <text x="768" y="107" text-anchor="middle" fill="#86efac" font-family="system-ui, sans-serif" font-size="7" font-weight="700">Approved 83%</text>

    <!-- === Row 2: Review Loop === -->
    <!-- Node: request_review -->
    <rect x="620" y="114" width="96" height="28" rx="5" fill="#0f1528" stroke="#c084fc" stroke-width="1" stroke-opacity="0.8"/>
    <text x="668" y="132" text-anchor="middle" fill="#e9d5ff" font-family="system-ui, sans-serif" font-size="9" font-weight="600">request_review</text>

    <!-- Arrow to conditional diamond -->
    <line x1="716" y1="128" x2="740" y2="128" stroke="#c084fc" stroke-width="1.2" stroke-opacity="0.5"/>
    <polygon points="738,124 746,128 738,132" fill="#c084fc" fill-opacity="0.6"/>

    <!-- Conditional diamond -->
    <polygon points="764,114 788,128 764,142 740,128" fill="#0f1528" stroke="#c084fc" stroke-width="1.2" stroke-opacity="0.8"/>
    <text x="764" y="131" text-anchor="middle" fill="#e9d5ff" font-family="system-ui, sans-serif" font-size="7" font-weight="700">&#x2265;80%?</text>

    <!-- YES path: down to verify -->
    <line x1="764" y1="142" x2="764" y2="158" stroke="#4ade80" stroke-width="1.2" stroke-opacity="0.6"/>
    <polygon points="759,156 764,164 769,156" fill="#4ade80" fill-opacity="0.6"/>
    <text x="778" y="155" fill="#4ade80" font-family="system-ui, sans-serif" font-size="7" font-weight="600">YES</text>

    <!-- Node: verify -->
    <rect x="733" y="164" width="62" height="28" rx="5" fill="#0f1528" stroke="#4ade80" stroke-width="1.2" stroke-opacity="0.8"/>
    <text x="764" y="182" text-anchor="middle" fill="#86efac" font-family="system-ui, sans-serif" font-size="9" font-weight="600">verify</text>

    <!-- NO path: right from diamond then down to revise -->
    <line x1="788" y1="128" x2="820" y2="128" stroke="#f87171" stroke-width="1.2" stroke-opacity="0.6"/>
    <text x="804" y="122" fill="#f87171" font-family="system-ui, sans-serif" font-size="7" font-weight="600">NO</text>

    <!-- Revise node -->
    <rect x="820" y="114" width="72" height="28" rx="5" fill="#0f1528" stroke="#f87171" stroke-width="1" stroke-opacity="0.6"/>
    <text x="856" y="132" text-anchor="middle" fill="#fca5a5" font-family="system-ui, sans-serif" font-size="9" font-weight="600">revise</text>

    <!-- Loop arrow: revise back left to OutGuard (curved via path) -->
    <path d="M 856,142 L 856,152 L 576,152 L 576,142" fill="none" stroke="#f87171" stroke-width="1.2" stroke-opacity="0.5" stroke-dasharray="3,2"/>
    <polygon points="571,144 576,136 581,144" fill="#f87171" fill-opacity="0.6"/>
    <text x="716" y="148" text-anchor="middle" fill="#64748b" font-family="system-ui, sans-serif" font-size="6">re-check guardrails</text>

    <!-- Review scores annotation -->
    <rect x="50" y="116" width="555" height="40" rx="5" fill="#0f1528" stroke="#475569" stroke-width="0.8" stroke-opacity="0.4"/>
    <text x="66" y="132" fill="#94a3b8" font-family="system-ui, sans-serif" font-size="8" font-weight="600">Review Loop</text>
    <text x="66" y="144" fill="#f87171" font-family="system-ui, sans-serif" font-size="8">R1: Arch 88% / Sec 78% &#x2192; approved</text>
    <text x="310" y="144" fill="#4ade80" font-family="system-ui, sans-serif" font-size="8">Approved round 1 &#x2713;</text>

    <!-- Loop iteration indicator -->
    <text x="66" y="210" fill="#64748b" font-family="system-ui, sans-serif" font-size="7">Guard &#x2192; read &#x2192; experts &#x2192; synth &#x2192; validate &#x2192; OutGuard &#x2192; publish &#x2192; review &#x2192; [&#x2265;80%? verify : revise &#x2192; OutGuard &#x2192; publish &#x2192; ...]</text>
  </g>

  <!-- Connector arrow 4->5 -->
  <line x1="480" y1="678" x2="480" y2="702" stroke="#475569" stroke-width="1.5" stroke-dasharray="4,3"/>
  <polygon points="475,700 480,708 485,700" fill="#475569"/>

  <!-- ===== PHASE 5: Observability ===== -->
  <g transform="translate(0, 708)">
    <circle cx="50" cy="18" r="14" fill="none" stroke="#64748b" stroke-width="1.5"/>
    <text x="50" y="23" text-anchor="middle" fill="#94a3b8" font-family="system-ui, sans-serif" font-size="13" font-weight="700">5</text>
    <text x="72" y="23" fill="#e2e8f0" font-family="system-ui, sans-serif" font-size="13" font-weight="600">Observability</text>

    <!-- Phoenix Traces -->
    <rect x="40" y="40" width="170" height="36" rx="6" fill="#1e293b" stroke="#64748b" stroke-width="1"/>
    <text x="125" y="55" text-anchor="middle" fill="#c084fc" font-family="system-ui, sans-serif" font-size="11" font-weight="600">Phoenix Traces</text>
    <text x="125" y="68" text-anchor="middle" fill="#94a3b8" font-family="system-ui, sans-serif" font-size="9">every LLM call traced</text>

    <!-- NCMS Dashboard -->
    <rect x="225" y="40" width="170" height="36" rx="6" fill="#1e293b" stroke="#64748b" stroke-width="1"/>
    <text x="310" y="55" text-anchor="middle" fill="#38bdf8" font-family="system-ui, sans-serif" font-size="11" font-weight="600">NCMS Dashboard</text>
    <text x="310" y="68" text-anchor="middle" fill="#94a3b8" font-family="system-ui, sans-serif" font-size="9">real-time SSE events</text>

    <!-- Bus Announcements -->
    <rect x="410" y="40" width="170" height="36" rx="6" fill="#1e293b" stroke="#64748b" stroke-width="1"/>
    <text x="495" y="55" text-anchor="middle" fill="#fbbf24" font-family="system-ui, sans-serif" font-size="11" font-weight="600">Bus Announcements</text>
    <text x="495" y="68" text-anchor="middle" fill="#94a3b8" font-family="system-ui, sans-serif" font-size="9">agent coordination</text>

    <!-- Review Reports -->
    <rect x="595" y="40" width="150" height="36" rx="6" fill="#1e293b" stroke="#64748b" stroke-width="1"/>
    <text x="670" y="55" text-anchor="middle" fill="#e9d5ff" font-family="system-ui, sans-serif" font-size="11" font-weight="600">Review Reports</text>
    <text x="670" y="68" text-anchor="middle" fill="#94a3b8" font-family="system-ui, sans-serif" font-size="9">score + feedback</text>

    <!-- Summary label -->
    <rect x="80" y="90" width="760" height="24" rx="6" fill="#0f1528" stroke="#475569" stroke-width="1"/>
    <text x="460" y="106" text-anchor="middle" fill="#94a3b8" font-family="system-ui, sans-serif" font-size="10" font-weight="600">4 LLM calls + review  |  Guardrails + Manifest + Validation  |  Approved at 83% (round 1)</text>
  </g>

  <!-- ===== Expert Dual-Mode Inset ===== -->
  <g transform="translate(0, 846)">
    <rect x="40" y="10" width="880" height="90" rx="8" fill="url(#expertGrad)" stroke="#a78bfa" stroke-width="1" stroke-opacity="0.5"/>
    <text x="56" y="30" fill="#c4b5fd" font-family="system-ui, sans-serif" font-size="11" font-weight="700">Expert Dual-Mode Routing (LangGraph)</text>

    <!-- Question mode -->
    <rect x="56" y="40" width="320" height="22" rx="4" fill="#0f1528" stroke="#475569" stroke-width="0.8"/>
    <text x="66" y="55" fill="#a78bfa" font-family="system-ui, sans-serif" font-size="8" font-weight="700">Question</text>
    <text x="128" y="55" fill="#94a3b8" font-family="system-ui, sans-serif" font-size="8">classify &#x2192; search_memory &#x2192; answer</text>

    <!-- Review mode -->
    <rect x="56" y="68" width="320" height="22" rx="4" fill="#0f1528" stroke="#475569" stroke-width="0.8"/>
    <text x="66" y="83" fill="#c084fc" font-family="system-ui, sans-serif" font-size="8" font-weight="700">Review</text>
    <text x="116" y="83" fill="#94a3b8" font-family="system-ui, sans-serif" font-size="8">classify &#x2192; search_memory &#x2192; SCORE / COVERED / MISSING / CHANGES</text>

    <!-- Visual diagram of routing -->
    <rect x="420" y="38" width="120" height="56" rx="5" fill="#0f1528" stroke="#a78bfa" stroke-width="0.8" stroke-opacity="0.4"/>
    <text x="480" y="53" text-anchor="middle" fill="#c4b5fd" font-family="system-ui, sans-serif" font-size="8" font-weight="600">classify_request</text>
    <text x="480" y="65" text-anchor="middle" fill="#64748b" font-family="system-ui, sans-serif" font-size="7">question | review</text>
    <line x1="480" y1="70" x2="480" y2="78" stroke="#a78bfa" stroke-width="0.8" stroke-opacity="0.4"/>
    <text x="480" y="87" text-anchor="middle" fill="#94a3b8" font-family="system-ui, sans-serif" font-size="7">&#x2193; search_memory &#x2193;</text>

    <!-- Output indicators -->
    <rect x="560" y="40" width="56" height="20" rx="3" fill="#1e293b" stroke="#a78bfa" stroke-width="0.6"/>
    <text x="588" y="54" text-anchor="middle" fill="#c4b5fd" font-family="system-ui, sans-serif" font-size="7" font-weight="600">answer</text>
    <rect x="624" y="40" width="120" height="20" rx="3" fill="#1e293b" stroke="#c084fc" stroke-width="0.6"/>
    <text x="684" y="54" text-anchor="middle" fill="#e9d5ff" font-family="system-ui, sans-serif" font-size="7" font-weight="600">review_document</text>
    <rect x="560" y="66" width="184" height="20" rx="3" fill="#0f1528" stroke="#475569" stroke-width="0.6"/>
    <text x="652" y="80" text-anchor="middle" fill="#64748b" font-family="system-ui, sans-serif" font-size="7">SCORE / COVERED / MISSING / CHANGES</text>
  </g>

  <!-- ===== Legend for new node types ===== -->
  <g transform="translate(0, 950)">
    <rect x="40" y="10" width="880" height="46" rx="6" fill="#0f1528" stroke="#475569" stroke-width="0.8" stroke-opacity="0.4"/>
    <text x="56" y="28" fill="#64748b" font-family="system-ui, sans-serif" font-size="9" font-weight="600">Legend:</text>
    <!-- Guard -->
    <rect x="110" y="18" width="50" height="16" rx="3" fill="#0a1628" stroke="#06b6d4" stroke-width="1"/>
    <text x="135" y="30" text-anchor="middle" fill="#22d3ee" font-family="system-ui, sans-serif" font-size="7" font-weight="600">Guard</text>
    <text x="168" y="30" fill="#94a3b8" font-family="system-ui, sans-serif" font-size="8">Input/Output guardrails</text>
    <!-- Manifest -->
    <rect x="310" y="18" width="54" height="16" rx="3" fill="#1a1400" stroke="#f59e0b" stroke-width="1"/>
    <text x="337" y="30" text-anchor="middle" fill="#fbbf24" font-family="system-ui, sans-serif" font-size="7" font-weight="600">Manifest</text>
    <text x="372" y="30" fill="#94a3b8" font-family="system-ui, sans-serif" font-size="8">Build manifest gen</text>
    <!-- Validate -->
    <rect x="486" y="18" width="50" height="16" rx="3" fill="#1a1400" stroke="#eab308" stroke-width="1"/>
    <text x="511" y="30" text-anchor="middle" fill="#facc15" font-family="system-ui, sans-serif" font-size="7" font-weight="600">Validate</text>
    <text x="544" y="30" fill="#94a3b8" font-family="system-ui, sans-serif" font-size="8">Completeness check</text>
    <text x="56" y="48" fill="#475569" font-family="system-ui, sans-serif" font-size="8">Phase 1 additions: input guardrails (all phases), manifest generation (PRD), completeness validation + output guardrails (Design), revise routes through OutGuard</text>
  </g>
</svg>
